<?xml version="1.0" encoding="iso-8859-1"?>
<!-- Generator: Adobe Illustrator 19.0.0, SVG Export Plug-In . SVG Version: 6.00 Build 0)  -->
<svg version="1.1" id="Capa_1" xmlns="http://www.w3.org/2000/svg" xmlns:xlink="http://www.w3.org/1999/xlink" x="0px" y="0px"
	 viewBox="0 0 496 496" style="enable-background:new 0 0 496 496;" xml:space="preserve">
<g>
	<g>
		<path d="M461.632,101.048C479.216,98.064,496,92.08,496,80c0-14.696-24.768-20.488-46.72-22.736C442.368,51.568,433.632,48,424,48
			c-9.64,0-18.368,3.568-25.28,9.264C377.024,59.496,352,65.264,352,80c0,12.08,16.784,18.064,34.368,21.048
			C391.816,116.68,406.536,128,424,128c6.992,0,13.48-1.96,19.208-5.136C467.2,160.224,480,203.272,480,248
			c0,127.92-104.08,232-232,232c-20.992,0-41.808-2.808-61.872-8.336l-4.248,15.424C203.328,493,225.568,496,248,496
			c136.752,0,248-111.248,248-248c0-48.552-14.08-95.264-40.52-135.624C458.12,108.984,460.192,105.192,461.632,101.048z
			 M477.776,80.024c-2.808,1.392-7.632,2.952-14.144,4.336c-0.288-3.176-0.928-6.224-1.92-9.136
			C469.576,76.76,474.824,78.568,477.776,80.024z M384.368,84.368c-6.512-1.384-11.328-2.944-14.144-4.336
			c2.944-1.464,8.208-3.264,16.056-4.8C385.288,78.144,384.656,81.192,384.368,84.368z M424,112c-7.384,0-13.92-3.424-18.328-8.688
			C413.864,103.896,420.728,104,424,104c3.272,0,10.136-0.104,18.328-0.688C437.92,108.576,431.384,112,424,112z M424,88
			c-9,0-16.904-0.496-23.872-1.232C400.784,74.12,411.184,64,424,64c12.816,0,23.216,10.12,23.872,22.768
			C440.904,87.504,433,88,424,88z"/>
	</g>
</g>
<g>
	<g>
		<path d="M271.184,114.112C268.536,103.728,259.192,96,248,96c-13.232,0-24,10.768-24,24s10.768,24,24,24
			c9.616,0,17.88-5.72,21.704-13.912C326.104,140.416,368,190.048,368,248c0,39.432-19.392,76.36-51.872,98.8l9.096,13.168
			C362.024,334.536,384,292.68,384,248C384,181.848,335.816,125.248,271.184,114.112z M248,128c-4.416,0-8-3.584-8-8s3.584-8,8-8
			s8,3.584,8,8S252.416,128,248,128z"/>
	</g>
</g>
<g>
	<g>
		<path d="M248,184c-35.288,0-64,28.712-64,64c0,35.288,28.712,64,64,64c35.288,0,64-28.712,64-64C312,212.712,283.288,184,248,184z
			 M248,296c-26.472,0-48-21.528-48-48s21.528-48,48-48s48,21.528,48,48S274.472,296,248,296z"/>
	</g>
</g>
<g>
	<g>
		<path d="M128,416c-10.64,0-20.272,4.248-27.44,11.048C46.72,382.784,16,318.136,16,248c0-72.984,33.328-140.264,91.448-184.592
			l-9.704-12.72C35.624,98.064,0,169.984,0,248c0,75.384,33.2,144.808,91.312,192.136C89.2,445.008,88,450.36,88,456
			c0,22.056,17.944,40,40,40c22.056,0,40-17.944,40-40C168,433.944,150.056,416,128,416z M128,480c-13.232,0-24-10.768-24-24
			s10.768-24,24-24s24,10.768,24,24S141.232,480,128,480z"/>
	</g>
</g>
<g>
	<g>
		<path d="M248,0c-37.936,0-74.352,8.344-108.224,24.808L146.76,39.2C178.448,23.808,212.504,16,248,16
			c43.952,0,86.744,12.352,123.728,35.712l8.544-13.528C340.728,13.2,294.984,0,248,0z"/>
	</g>
</g>
<g>
	<g>
		<path d="M125.216,32.488c-4.736,2.704-9.472,5.616-14.088,8.672l8.84,13.344c4.296-2.856,8.688-5.568,13.184-8.128L125.216,32.488
			z"/>
	</g>
</g>
<g>
	<g>
		<path d="M80,248H64c0,5.368,0.232,10.752,0.688,16.008l15.936-1.376C80.208,257.832,80,252.904,80,248z"/>
	</g>
</g>
<g>
	<g>
		<path d="M400,304c-17.648,0-32,14.352-32,32c0,7.992,3.048,15.224,7.912,20.832C343.888,394.448,297.456,416,248,416
			c-82.248,0-151.904-58.76-165.624-139.704l-15.784,2.672C81.624,367.64,157.92,432,248,432
			c54.712,0,106.048-24.056,141.152-66.024c3.4,1.24,7.024,2.024,10.848,2.024c17.648,0,32-14.352,32-32S417.648,304,400,304z
			 M400,352c-8.824,0-16-7.176-16-16c0-8.824,7.176-16,16-16c8.824,0,16,7.176,16,16C416,344.824,408.824,352,400,352z"/>
	</g>
</g>
<g>
	<g>
		<path d="M421.296,186.032l-15.064,5.392C412.712,209.528,416,228.568,416,248c0,14.488-1.84,28.872-5.496,42.768l15.488,4.064
			C429.976,279.608,432,263.848,432,248C432,226.728,428.4,205.872,421.296,186.032z"/>
	</g>
</g>
<g>
	<g>
		<path d="M408.872,158.648l-13.976,7.76c2.376,4.272,4.568,8.664,6.528,13.056l14.608-6.528
			C413.88,168.128,411.48,163.32,408.872,158.648z"/>
	</g>
</g>
<g>
	<g>
		<path d="M248,64c-70.696,0-135.136,40.784-165.728,104.232C81.512,168.176,80.776,168,80,168c-17.648,0-32,14.352-32,32
			s14.352,32,32,32s32-14.352,32-32c0-11.144-5.744-20.952-14.408-26.688C125.88,116.448,184.152,80,248,80
			c56.52,0,108.928,28.168,140.176,75.368l13.344-8.832C367.296,94.848,309.904,64,248,64z M80,216c-8.824,0-16-7.176-16-16
			c0-8.824,7.176-16,16-16s16,7.176,16,16C96,208.824,88.824,216,80,216z"/>
	</g>
</g>
<g>
	<g>
		<path d="M152,304c-3.248,0-6.336,0.664-9.16,1.832C133.112,288.184,128,268.368,128,248c0-52.864,33.88-98.92,84.312-114.6
			l-4.752-15.28C150.408,135.888,112,188.088,112,248c0,24.4,6.544,48.072,18.832,68.928C129.088,320.256,128,323.984,128,328
			c0,13.232,10.768,24,24,24s24-10.768,24-24S165.232,304,152,304z M152,336c-4.416,0-8-3.584-8-8c0-4.416,3.584-8,8-8s8,3.584,8,8
			C160,332.416,156.416,336,152,336z"/>
	</g>
</g>
<g>
	<g>
		<path d="M303.928,354.192C286.824,363.224,267.488,368,248,368c-23.192,0-45.704-6.624-65.088-19.168l-8.688,13.44
			C196.2,376.488,221.712,384,248,384c22.08,0,44-5.416,63.4-15.648L303.928,354.192z"/>
	</g>
</g>
<g>
	<g>
		<path d="M338.04,262.944c2.656-3.92,5.96-8.792,5.96-14.944c0-6.152-3.304-11.024-5.96-14.944
			c-1.288-1.888-2.744-4.04-3.016-5.288c-0.32-1.416,0.096-4.104,0.464-6.472c0.712-4.632,1.592-10.392-0.944-15.784
			c-2.592-5.504-7.64-8.432-11.696-10.784c-1.976-1.144-4.216-2.448-5.024-3.472c-0.832-1.064-1.584-3.632-2.248-5.896
			c-1.328-4.52-2.984-10.152-7.64-13.944c-4.68-3.832-10.464-4.232-15.112-4.568c-2.28-0.16-4.864-0.344-6.032-0.912
			c-1.112-0.544-2.832-2.488-4.352-4.184c-3.16-3.536-7.088-7.952-13.04-9.328c-5.784-1.36-11.136,0.832-15.432,2.584
			c-2.168,0.888-4.608,1.888-5.968,1.888s-3.808-1-5.968-1.888c-4.296-1.752-9.648-3.944-15.432-2.584
			c-5.944,1.384-9.872,5.776-13.04,9.328c-1.512,1.704-3.24,3.64-4.352,4.184c-1.168,0.568-3.744,0.752-6.024,0.912
			c-4.648,0.328-10.44,0.736-15.12,4.56c-4.656,3.808-6.304,9.44-7.64,13.96c-0.664,2.264-1.416,4.832-2.24,5.888
			c-0.8,1.024-3.04,2.32-5.024,3.472c-4.056,2.344-9.104,5.264-11.696,10.776c-2.544,5.392-1.664,11.16-0.952,15.792
			c0.368,2.368,0.776,5.056,0.464,6.472c-0.272,1.248-1.728,3.4-3.016,5.288c-2.656,3.92-5.96,8.792-5.96,14.944
			s3.304,11.024,5.96,14.944c1.288,1.888,2.744,4.04,3.016,5.288c0.32,1.416-0.096,4.104-0.464,6.472
			c-0.712,4.632-1.592,10.392,0.944,15.784c2.592,5.504,7.64,8.432,11.696,10.784c1.976,1.144,4.216,2.448,5.024,3.472
			c0.832,1.064,1.584,3.632,2.248,5.896c1.328,4.52,2.984,10.152,7.64,13.944c4.68,3.832,10.464,4.232,15.112,4.568
			c2.28,0.16,4.864,0.344,6.032,0.912c1.112,0.544,2.832,2.488,4.352,4.184c3.16,3.536,7.088,7.952,13.04,9.328
			c1.256,0.296,2.504,0.424,3.712,0.424c4.36,0,8.36-1.64,11.72-3.008c2.168-0.888,4.608-1.888,5.968-1.888s3.808,1,5.968,1.888
			c4.296,1.752,9.648,3.952,15.432,2.584c5.944-1.384,9.872-5.784,13.04-9.328c1.512-1.704,3.24-3.64,4.352-4.184
			c1.168-0.568,3.744-0.752,6.024-0.912c4.648-0.328,10.44-0.736,15.12-4.56c4.656-3.808,6.304-9.44,7.64-13.96
			c0.664-2.264,1.416-4.832,2.24-5.888c0.8-1.024,3.04-2.32,5.024-3.472c4.056-2.344,9.104-5.264,11.696-10.776
			c2.544-5.392,1.664-11.16,0.952-15.792c-0.368-2.368-0.776-5.056-0.464-6.472C335.296,266.984,336.752,264.832,338.04,262.944z
			 M324.8,253.968c-2.096,3.08-4.456,6.56-5.4,10.8c-0.96,4.336-0.304,8.6,0.264,12.368c0.32,2.08,0.856,5.56,0.4,6.528
			c-0.472,0.992-3.344,2.656-5.24,3.76c-3.232,1.872-6.904,4-9.624,7.472c-2.704,3.472-3.912,7.592-4.976,11.224
			c-0.592,2.024-1.592,5.408-2.416,6.08c-0.752,0.616-4.112,0.848-6.12,0.992c-3.752,0.264-8,0.56-11.984,2.528
			c-3.888,1.92-6.72,5.096-9.208,7.88c-1.384,1.552-3.712,4.168-4.704,4.392c-0.952,0.128-3.96-1.08-5.768-1.816
			c-3.52-1.448-7.52-3.08-12.024-3.08s-8.496,1.632-12.024,3.08c-1.816,0.744-4.936,1.96-5.752,1.824
			c-1.008-0.232-3.336-2.84-4.72-4.4c-2.496-2.8-5.32-5.96-9.224-7.888c-3.976-1.952-8.216-2.256-11.96-2.52
			c-2.016-0.144-5.376-0.384-6.136-1c-0.824-0.664-1.816-4.048-2.408-6.072c-1.072-3.64-2.28-7.76-4.992-11.224
			c-2.704-3.472-6.376-5.592-9.608-7.472c-1.904-1.112-4.784-2.776-5.248-3.76c-0.456-0.968,0.064-4.312,0.4-6.528
			c0.576-3.76,1.232-8.024,0.272-12.368c-0.944-4.232-3.304-7.72-5.4-10.8c-1.352-2-3.2-4.736-3.2-5.968s1.848-3.968,3.2-5.968
			c2.096-3.08,4.456-6.56,5.4-10.8c0.96-4.336,0.304-8.6-0.264-12.368c-0.32-2.08-0.856-5.56-0.4-6.528
			c0.472-0.992,3.344-2.656,5.24-3.76c3.232-1.872,6.904-4,9.624-7.472c2.704-3.472,3.912-7.592,4.976-11.224
			c0.592-2.024,1.592-5.408,2.416-6.08c0.752-0.616,4.112-0.848,6.12-0.992c3.752-0.264,8-0.56,11.984-2.528
			c3.888-1.92,6.72-5.096,9.208-7.88c1.384-1.552,3.712-4.168,4.704-4.392c0.056-0.008,0.12-0.016,0.184-0.016
			c1.112,0,3.872,1.136,5.576,1.832c3.52,1.448,7.52,3.08,12.024,3.08c4.504,0,8.496-1.632,12.024-3.08
			c1.816-0.744,4.968-1.936,5.752-1.824c1.008,0.232,3.336,2.84,4.72,4.4c2.496,2.8,5.32,5.96,9.224,7.888
			c3.976,1.952,8.216,2.256,11.96,2.52c2.016,0.144,5.376,0.384,6.136,1c0.824,0.664,1.816,4.048,2.408,6.072
			c1.072,3.64,2.28,7.76,4.992,11.224c2.704,3.472,6.376,5.592,9.608,7.472c1.904,1.112,4.784,2.776,5.248,3.76
			c0.456,0.968-0.064,4.312-0.4,6.528c-0.576,3.76-1.232,8.024-0.272,12.368c0.944,4.232,3.304,7.72,5.4,10.8
			c1.36,2,3.208,4.736,3.208,5.968S326.152,251.968,324.8,253.968z"/>
	</g>
</g>
<g>
	<g>
		<rect x="120" y="448" width="16" height="16"/>
	</g>
</g>
<g>
</g>
<g>
</g>
<g>
</g>
<g>
</g>
<g>
</g>
<g>
</g>
<g>
</g>
<g>
</g>
<g>
</g>
<g>
</g>
<g>
</g>
<g>
</g>
<g>
</g>
<g>
</g>
<g>
</g>
</svg>
